<?xml version="1.0" encoding="UTF-8" standalone="no"?>
<svg
   version="1.0"
   width="549.77832pt"
   height="403.42502pt"
   viewBox="0 0 549.77832 403.42502"
   preserveAspectRatio="xMidYMid"
   id="svg10"
   xmlns="http://www.w3.org/2000/svg"
   xmlns:svg="http://www.w3.org/2000/svg">
  <defs
     id="defs10" />
  <g
     transform="matrix(0.1,0,0,-0.1,-4.9999997,412)"
     fill="#000000"
     stroke="none"
     id="g10"
     style="fill:#245f3f;fill-opacity:1">
    <path
       d="m 988,4088 c -32,-17 -76,-46 -98,-65 -56,-48 -54,-74 13,-176 60,-92 670,-906 714,-952 35,-37 254,-226 463,-400 85,-70 163,-135 173,-143 15,-14 19,-14 32,-1 13,13 9,24 -33,94 -41,69 -626,909 -1000,1435 -125,177 -177,240 -196,240 -6,0 -37,-15 -68,-32 z"
       id="path1"
       style="fill:#245f3f;fill-opacity:1" />
    <path
       d="m 1095,2953 c -16,-2 -63,-10 -103,-19 -71,-15 -74,-17 -103,-64 -23,-38 -51,-62 -132,-114 -128,-81 -216,-170 -260,-263 -30,-65 -32,-74 -33,-188 0,-117 -1,-122 -34,-183 -50,-94 -51,-144 -5,-262 21,-52 46,-138 56,-190 25,-121 34,-144 74,-179 33,-28 96,-56 114,-49 5,2 -5,37 -23,78 -30,73 -31,78 -31,235 -1,102 -5,170 -13,188 -15,35 -16,96 -1,134 5,15 27,52 47,82 37,53 37,54 35,148 -2,70 1,104 13,128 8,18 62,83 120,144 58,61 125,143 151,182 39,61 53,75 100,96 83,38 149,53 243,54 84,0 85,1 48,14 -40,15 -175,36 -211,34 -12,-1 -35,-4 -52,-6 z"
       id="path2"
       style="fill:#245f3f;fill-opacity:1" />
    <path
       d="m 1288,2803 c -36,-42 -40,-61 -22,-116 29,-90 60,-140 144,-236 154,-173 344,-314 585,-432 161,-79 202,-91 222,-64 7,11 13,22 13,26 0,4 -42,31 -92,60 -118,67 -202,123 -357,238 -218,163 -370,327 -441,476 -17,36 -32,65 -34,65 -2,0 -10,-8 -18,-17 z"
       id="path3"
       style="fill:#245f3f;fill-opacity:1" />
    <path
       d="m 2240,2595 c 9,-42 24,-62 65,-86 90,-55 197,-201 235,-324 20,-62 54,-126 99,-183 37,-47 77,-79 86,-70 2,2 -4,37 -14,78 -10,41 -23,117 -29,167 -19,164 -67,223 -297,361 -71,43 -135,81 -141,85 -9,5 -10,-3 -4,-28 z"
       id="path4"
       style="fill:#245f3f;fill-opacity:1" />
    <path
       d="m 923,2259 c -30,-30 193,-223 400,-348 135,-81 402,-207 534,-250 151,-50 252,-71 378,-78 97,-5 102,-5 130,19 l 29,25 -90,12 c -362,48 -671,177 -1099,461 -140,94 -259,170 -263,170 -5,0 -13,-5 -19,-11 z"
       id="path5"
       style="fill:#245f3f;fill-opacity:1" />
    <path
       d="m 2458,1869 c -43,-29 -78,-56 -78,-61 0,-19 271,-306 294,-312 52,-13 116,39 116,94 0,48 -210,330 -244,330 -6,0 -46,-23 -88,-51 z"
       id="path6"
       style="fill:#245f3f;fill-opacity:1" />
    <path
       d="m 867,1668 c 15,-26 37,-41 109,-70 122,-51 290,-106 404,-131 132,-29 386,-30 513,-3 86,19 129,38 115,51 -4,4 -92,9 -195,10 -298,5 -480,34 -788,125 -93,27 -171,50 -173,50 -2,0 5,-15 15,-32 z"
       id="path7"
       style="fill:#245f3f;fill-opacity:1" />
    <path
       d="m 2786,1490 c -34,-22 -46,-36 -44,-49 2,-11 52,-58 112,-105 141,-111 149,-102 63,63 -34,66 -67,121 -73,121 -5,0 -32,-14 -58,-30 z"
       id="path8"
       style="fill:#245f3f;fill-opacity:1" />
    <path
       d="m 933,1334 c -24,-11 -13,-34 25,-53 62,-31 201,-61 312,-67 111,-7 250,8 451,48 120,23 140,31 122,49 -9,9 -49,8 -165,-1 -130,-10 -185,-10 -368,4 -304,23 -363,26 -377,20 z"
       id="path9"
       style="fill:#245f3f;fill-opacity:1" />
    <path
       d="M 415,1030 C 349,1025 267,1014 232,1005 120,974 50,905 50,822 50,767 72,729 122,699 204,649 201,656 189,550 183,498 163,374 144,275 125,176 110,93 110,90 c 0,-3 48,-2 108,2 59,4 287,12 507,18 399,11 492,16 765,43 267,27 2085,10 2595,-23 88,-6 425,-19 749,-30 580,-19 590,-19 632,0 68,30 86,67 81,170 -5,114 -38,187 -109,238 -33,23 -56,50 -68,77 -41,95 -101,125 -405,199 -414,102 -758,146 -1170,149 l -186,2 -35,-40 c -19,-22 -40,-46 -45,-52 -6,-8 -37,-13 -84,-13 -52,0 -98,-8 -157,-26 -70,-22 -93,-25 -153,-20 -133,13 -921,107 -1175,141 -264,35 -486,59 -650,70 -52,3 -174,12 -270,20 -244,19 -484,25 -625,15 z"
       id="path10"
       style="fill:#245f3f;fill-opacity:1" />
  </g>
</svg>
